<?xml version="1.0"?><svg width="640" height="480" xmlns="http://www.w3.org/2000/svg" xmlns:xlink="http://www.w3.org/1999/xlink">
 <defs>
  <linearGradient id="linearGradient4950">
   <stop stop-color="#e2fa5b" offset="0" id="stop4952"/>
   <stop stop-color="#d4f70c" offset="1" id="stop4954"/>
  </linearGradient>
  <radialGradient xlink:href="#linearGradient4950" r="205.71875" id="radialGradient4967" gradientUnits="userSpaceOnUse" gradientTransform="matrix(1, 0, 0, 1, 28, -345.002)" fy="600.07901" fx="253.74462" cy="600.07901" cx="253.74462"/>
 </defs>
 <g>
  <title>Layer 1</title>
  <g id="layer1">
   <g id="g4960">
    <path fill="#d7f721" fill-opacity="0.303571" fill-rule="nonzero" stroke-width="2" stroke-miterlimit="4" stroke-dashoffset="0" stroke-opacity="0.254464" id="path4943" d="m280.36853,44.411163c-115.660706,0.733398 -209.292389,94.836212 -209.292389,210.668488c0,1.236389 0.074753,2.448853 0.096008,3.680237c1.977432,114.581055 95.522354,206.98822 210.572479,206.98822c84.387512,0 156.956512,-49.845032 190.495178,-121.593933c1.111267,-2.377319 1.106445,-5.259399 2.131012,-7.683777c4.065948,-9.620972 7.609528,-18.988159 11.047455,-29.225708c0.429138,-1.682312 1.312561,-3.361633 1.700989,-5.059753c3.463989,-15.146667 5.293823,-30.913635 5.293823,-47.105286c0,-32.672546 -7.667969,-63.503296 -20.961212,-91.109406c-14.354736,-29.810333 -35.484772,-55.750397 -61.398315,-75.778778c-4.313599,-3.065918 -7.216888,-1.347748 -9.024689,-2.649933c-2.63623,-1.898926 -4.568817,-3.022858 -6.915588,-4.558167c-1.754639,-1.147919 -0.401276,-3.736633 -4.649628,-6.846313c-31.496704,-18.870148 -68.327179,-29.725891 -107.719025,-29.725891c-0.454254,0 -0.922516,-0.002869 -1.376099,0z"/>
    <path fill="#d7f721" fill-opacity="0.540179" fill-rule="nonzero" stroke-width="2" stroke-miterlimit="4" stroke-dashoffset="0" stroke-opacity="0.254464" id="path4941" d="m280.387024,47.239563c-114.10788,0.723541 -206.482468,93.562958 -206.482468,207.840088c0,1.219788 0.073753,2.415955 0.094711,3.630798c1.950897,113.042725 94.239899,204.209229 207.745361,204.209229c83.254547,0 154.849213,-49.175842 187.937592,-119.961426c1.096344,-2.345398 1.091614,-5.188782 2.102417,-7.580627c4.011353,-9.49176 7.507355,-18.733215 10.899078,-28.833374c0.423462,-1.659668 1.295044,-3.316467 1.678162,-4.99176c3.417542,-14.943298 5.222839,-30.498596 5.222839,-46.472839c0,-32.233887 -7.565063,-62.650696 -20.67984,-89.886169c-14.161987,-29.410126 -35.008362,-55.001923 -60.573975,-74.761414c-4.255707,-3.02475 -7.119995,-1.32962 -8.903534,-2.614319c-2.60083,-1.873444 -4.507477,-2.9823 -6.822754,-4.496979c-1.731079,-1.132507 -0.395874,-3.686462 -4.587189,-6.754395c-31.073822,-18.616791 -67.409821,-29.326813 -106.272797,-29.326813c-0.448151,0 -0.910156,-0.002838 -1.357605,0z"/>
    <path fill="url(#radialGradient4967)" fill-rule="nonzero" stroke-width="2" stroke-miterlimit="4" stroke-dashoffset="0" stroke-opacity="0.254464" id="path3060" d="m280.400879,49.36087c-112.943222,0.716156 -204.375008,92.608002 -204.375008,205.718781c0,1.207336 0.072998,2.391296 0.09375,3.59375c1.930977,111.888977 93.278023,202.124939 205.625008,202.125c82.404816,0 153.268768,-48.67395 186.019409,-118.737122c1.085144,-2.321411 1.080475,-5.135803 2.080963,-7.503235c3.970398,-9.394897 7.430725,-18.541992 10.787872,-28.539063c0.419128,-1.6427 1.281799,-3.282593 1.661011,-4.940796c3.382629,-14.790771 5.169495,-30.187317 5.169495,-45.998535c0,-31.904907 -7.487793,-62.011292 -20.46875,-88.968781c-14.017456,-29.109924 -34.651062,-54.440521 -59.955719,-73.998322c-4.21228,-2.993866 -7.047333,-1.316071 -8.812653,-2.587646c-2.57428,-1.85434 -4.461487,-2.951843 -6.753113,-4.45108c-1.71344,-1.120972 -0.391846,-3.648865 -4.540405,-6.685486c-30.756683,-18.426758 -66.721802,-29.027466 -105.18811,-29.027466c-0.443573,0 -0.900848,-0.002808 -1.34375,0z"/>
    <path fill="#f5f8ae" fill-opacity="0.477679" fill-rule="evenodd" stroke-width="8.056" stroke-miterlimit="4" id="path4946" d="m391.125,83c-35.099854,30.443024 -79.349091,47.551361 -121.857422,65.342224c-26.937195,11.122528 -55.162491,21.65448 -75.420609,43.364319c-39.72049,40.624512 -54.474625,104.001465 -37.03447,158.105957c16.405884,50.972473 64.143768,89.256653 117.146973,95.854736c41.773804,5.481934 85.538147,-4.131714 119.853027,-28.823486c25.202576,-17.934448 47.844788,-39.527588 67.1875,-63.625c5.940033,-7.522278 11.749847,-15.231934 14,-24.75c2.42807,-8.917542 7.939087,-17.461365 7.40625,-26.875c-8.056488,7.877441 -11.164337,19.523071 -18.220551,28.325562c-19.419434,27.023193 -43.138977,50.592285 -69.110687,71.118164c-26.161163,20.802673 -58.776337,33.374817 -92.293396,33.864197c-40.439636,2.36615 -81.588181,-13.601318 -108.406616,-43.901672c-24.440262,-26.759705 -35.798874,-64.212402 -32.168304,-100.244812c3.723434,-47.399048 30.744431,-94.509216 74.599518,-115.128601c52.630249,-24.469147 110.263062,-41.034912 155.731995,-78.248566c2.19754,-2.972565 9.249512,-5.193268 7.336792,-9.503021c-2.233368,-2.243073 -5.38797,-4.971985 -8.75,-4.875z"/>
    <path fill="#f5f8ae" fill-rule="evenodd" stroke-width="8.056" stroke-miterlimit="4" id="path3125" d="m391.414032,85.024689c-41.898712,38.259521 -116.728363,60.901062 -159.919403,81.961182c-56.16124,27.38443 -84.324829,90.949493 -79.34375,150.093781c6.034958,71.658203 65.058121,124.174744 133.875,127.71875c57.846466,2.979065 92.703552,-18.757019 115.9375,-36.34375c13.312378,-10.076721 30.61264,-26.056152 46.09375,-42.84375c6.904175,-7.486877 13.128784,-15.757446 20.552399,-26.190308c1.208435,-1.907288 6.831909,-17.871338 12.079803,-33.569214c-0.618896,1.334473 -1.690552,3.037537 -6.489166,11.674561c-7.626862,13.727539 -16.904449,26.159363 -32.080536,42.616211c-15.176086,16.456848 -32.313934,32.248718 -45.03125,41.875c-22.720917,17.198364 -54.957092,37.587219 -110.65625,34.71875c-64.979462,-3.346436 -120.555695,-52.698975 -126.250015,-120.3125c-4.726791,-56.125 22.161942,-116.499634 74.843765,-142.1875c42.36853,-20.659088 119.325928,-43.292419 163.318756,-84.664276c0.776703,-0.730408 -6.101196,-5.304321 -6.930603,-4.546936z"/>
   </g>
  </g>
 </g>
</svg>